<?xml version="1.0" encoding="UTF-8" standalone="no"?>
<!-- Created with Inkscape (http://www.inkscape.org/) -->

<svg
   xmlns:dc="http://purl.org/dc/elements/1.1/"
   xmlns:cc="http://creativecommons.org/ns#"
   xmlns:rdf="http://www.w3.org/1999/02/22-rdf-syntax-ns#"
   xmlns:svg="http://www.w3.org/2000/svg"
   xmlns="http://www.w3.org/2000/svg"
   version="1.1"
   width="55"
   height="55"
   id="svg2">
  <metadata
     id="metadata9">
    <rdf:RDF>
      <cc:Work
         rdf:about="">
        <dc:format>image/svg+xml</dc:format>
        <dc:type
           rdf:resource="http://purl.org/dc/dcmitype/StillImage" />
        <dc:title></dc:title>
      </cc:Work>
    </rdf:RDF>
  </metadata>
  <defs
     id="defs7" />
  <g
     transform="translate(-1.9823204e-7,-5.0815256e-5)"
     id="g3444">
    <g
       transform="matrix(0.80357143,0,0,0.80357143,2.9910715,5.4017857)"
       id="g4">
      <path
         d="m 20.286886,19.159836 a 2.9303279,3.3811476 0 1 1 -7.5e-5,-0.02412"
         transform="matrix(1.0237762,0,0,0.88727271,-3.1025641,10.500001)"
         id="path6"
         style="fill:#eeeeee;fill-opacity:1;stroke:#eeeeee;stroke-width:0;stroke-linecap:round;stroke-linejoin:miter;stroke-miterlimit:4;stroke-opacity:1;stroke-dasharray:none" />
      <path
         d="m 20.286886,19.159836 a 2.9303279,3.3811476 0 1 1 -7.5e-5,-0.02412"
         transform="matrix(1.0237762,0,0,0.88727271,4.0641022,10.500001)"
         id="path8"
         style="fill:#eeeeee;fill-opacity:1;stroke:#eeeeee;stroke-width:0;stroke-linecap:round;stroke-linejoin:miter;stroke-miterlimit:4;stroke-opacity:1;stroke-dasharray:none" />
      <path
         d="m 20.286886,19.159836 a 2.9303279,3.3811476 0 1 1 -7.5e-5,-0.02412"
         transform="matrix(1.0237762,0,0,0.88727271,11.230769,10.500001)"
         id="path10"
         style="fill:#eeeeee;fill-opacity:1;stroke:#eeeeee;stroke-width:0;stroke-linecap:round;stroke-linejoin:miter;stroke-miterlimit:4;stroke-opacity:1;stroke-dasharray:none" />
      <path
         d="m 20.286886,19.159836 a 2.9303279,3.3811476 0 1 1 -7.5e-5,-0.02412"
         transform="matrix(1.0237762,0,0,0.88727271,18.397435,10.500001)"
         id="path12"
         style="fill:#eeeeee;fill-opacity:1;stroke:#eeeeee;stroke-width:0;stroke-linecap:round;stroke-linejoin:miter;stroke-miterlimit:4;stroke-opacity:1;stroke-dasharray:none" />
      <path
         d="m 20.286886,19.159836 a 2.9303279,3.3811476 0 1 1 -7.5e-5,-0.02412"
         transform="matrix(1.0237762,0,0,0.88727271,-10.269231,10.500001)"
         id="path14"
         style="fill:#eeeeee;fill-opacity:1;stroke:#eeeeee;stroke-width:0;stroke-linecap:round;stroke-linejoin:miter;stroke-miterlimit:4;stroke-opacity:1;stroke-dasharray:none" />
      <path
         d="m 20.286886,19.159836 a 2.9303279,3.3811476 0 1 1 -7.5e-5,-0.02412"
         transform="matrix(1.0237762,0,0,0.88727271,25.564102,10.500001)"
         id="path16"
         style="fill:#eeeeee;fill-opacity:1;stroke:#eeeeee;stroke-width:0;stroke-linecap:round;stroke-linejoin:miter;stroke-miterlimit:4;stroke-opacity:1;stroke-dasharray:none" />
      <path
         d="m 20.286886,19.159836 a 2.9303279,3.3811476 0 1 1 -7.5e-5,-0.02412"
         transform="matrix(1.0237762,0,0,0.88727271,32.730769,10.500001)"
         id="path18"
         style="fill:#eeeeee;fill-opacity:1;stroke:#eeeeee;stroke-width:0;stroke-linecap:round;stroke-linejoin:miter;stroke-miterlimit:4;stroke-opacity:1;stroke-dasharray:none" />
    </g>
    <g
       transform="matrix(0.80357143,0,0,0.80357143,2.9910715,17.723214)"
       id="g20">
      <path
         d="m 20.286886,19.159836 a 2.9303279,3.3811476 0 1 1 -7.5e-5,-0.02412"
         transform="matrix(1.0237762,0,0,0.88727271,-3.1025641,10.500001)"
         id="path22"
         style="fill:#eeeeee;fill-opacity:1;stroke:#eeeeee;stroke-width:0;stroke-linecap:round;stroke-linejoin:miter;stroke-miterlimit:4;stroke-opacity:1;stroke-dasharray:none" />
      <path
         d="m 20.286886,19.159836 a 2.9303279,3.3811476 0 1 1 -7.5e-5,-0.02412"
         transform="matrix(1.0237762,0,0,0.88727271,4.0641022,10.500001)"
         id="path24"
         style="fill:#eeeeee;fill-opacity:1;stroke:#eeeeee;stroke-width:0;stroke-linecap:round;stroke-linejoin:miter;stroke-miterlimit:4;stroke-opacity:1;stroke-dasharray:none" />
      <path
         d="m 20.286886,19.159836 a 2.9303279,3.3811476 0 1 1 -7.5e-5,-0.02412"
         transform="matrix(1.0237762,0,0,0.88727271,11.230769,10.500001)"
         id="path26"
         style="fill:#eeeeee;fill-opacity:1;stroke:#eeeeee;stroke-width:0;stroke-linecap:round;stroke-linejoin:miter;stroke-miterlimit:4;stroke-opacity:1;stroke-dasharray:none" />
      <path
         d="m 20.286886,19.159836 a 2.9303279,3.3811476 0 1 1 -7.5e-5,-0.02412"
         transform="matrix(1.0237762,0,0,0.88727271,18.397435,10.500001)"
         id="path28"
         style="fill:#eeeeee;fill-opacity:1;stroke:#eeeeee;stroke-width:0;stroke-linecap:round;stroke-linejoin:miter;stroke-miterlimit:4;stroke-opacity:1;stroke-dasharray:none" />
      <path
         d="m 20.286886,19.159836 a 2.9303279,3.3811476 0 1 1 -7.5e-5,-0.02412"
         transform="matrix(1.0237762,0,0,0.88727271,-10.269231,10.500001)"
         id="path30"
         style="fill:#eeeeee;fill-opacity:1;stroke:#eeeeee;stroke-width:0;stroke-linecap:round;stroke-linejoin:miter;stroke-miterlimit:4;stroke-opacity:1;stroke-dasharray:none" />
      <path
         d="m 20.286886,19.159836 a 2.9303279,3.3811476 0 1 1 -7.5e-5,-0.02412"
         transform="matrix(1.0237762,0,0,0.88727271,25.564102,10.500001)"
         id="path32"
         style="fill:#eeeeee;fill-opacity:1;stroke:#eeeeee;stroke-width:0;stroke-linecap:round;stroke-linejoin:miter;stroke-miterlimit:4;stroke-opacity:1;stroke-dasharray:none" />
      <path
         d="m 20.286886,19.159836 a 2.9303279,3.3811476 0 1 1 -7.5e-5,-0.02412"
         transform="matrix(1.0237762,0,0,0.88727271,32.730769,10.500001)"
         id="path34"
         style="fill:#eeeeee;fill-opacity:1;stroke:#eeeeee;stroke-width:0;stroke-linecap:round;stroke-linejoin:miter;stroke-miterlimit:4;stroke-opacity:1;stroke-dasharray:none" />
    </g>
    <g
       transform="matrix(0.80357143,0,0,0.80357143,5.4017858,-13.080357)"
       id="g36">
      <path
         d="m 20.286886,19.159836 a 2.9303279,3.3811476 0 1 1 -7.5e-5,-0.02412"
         transform="matrix(1.0237762,0,0,0.88727271,-3.1025641,10.500001)"
         id="path38"
         style="fill:#eeeeee;fill-opacity:1;stroke:#eeeeee;stroke-width:0;stroke-linecap:round;stroke-linejoin:miter;stroke-miterlimit:4;stroke-opacity:1;stroke-dasharray:none" />
      <path
         d="m 20.286886,19.159836 a 2.9303279,3.3811476 0 1 1 -7.5e-5,-0.02412"
         transform="matrix(1.0237762,0,0,0.88727271,4.0641022,10.500001)"
         id="path40"
         style="fill:#eeeeee;fill-opacity:1;stroke:#eeeeee;stroke-width:0;stroke-linecap:round;stroke-linejoin:miter;stroke-miterlimit:4;stroke-opacity:1;stroke-dasharray:none" />
      <path
         d="m 20.286886,19.159836 a 2.9303279,3.3811476 0 1 1 -7.5e-5,-0.02412"
         transform="matrix(1.0237762,0,0,0.88727271,11.230769,10.500001)"
         id="path42"
         style="fill:#eeeeee;fill-opacity:1;stroke:#eeeeee;stroke-width:0;stroke-linecap:round;stroke-linejoin:miter;stroke-miterlimit:4;stroke-opacity:1;stroke-dasharray:none" />
      <path
         d="m 20.286886,19.159836 a 2.9303279,3.3811476 0 1 1 -7.5e-5,-0.02412"
         transform="matrix(1.0237762,0,0,0.88727271,18.397435,10.500001)"
         id="path44"
         style="fill:#eeeeee;fill-opacity:1;stroke:#eeeeee;stroke-width:0;stroke-linecap:round;stroke-linejoin:miter;stroke-miterlimit:4;stroke-opacity:1;stroke-dasharray:none" />
      <path
         d="m 20.286886,19.159836 a 2.9303279,3.3811476 0 1 1 -7.5e-5,-0.02412"
         transform="matrix(1.0237762,0,0,0.88727271,-10.269231,10.500001)"
         id="path46"
         style="fill:#eeeeee;fill-opacity:1;stroke:#eeeeee;stroke-width:0;stroke-linecap:round;stroke-linejoin:miter;stroke-miterlimit:4;stroke-opacity:1;stroke-dasharray:none" />
      <path
         d="m 20.286886,19.159836 a 2.9303279,3.3811476 0 1 1 -7.5e-5,-0.02412"
         transform="matrix(1.0237762,0,0,0.88727271,25.564102,10.500001)"
         id="path48"
         style="fill:#eeeeee;fill-opacity:1;stroke:#eeeeee;stroke-width:0;stroke-linecap:round;stroke-linejoin:miter;stroke-miterlimit:4;stroke-opacity:1;stroke-dasharray:none" />
      <path
         d="m 20.286886,19.159836 a 2.9303279,3.3811476 0 1 1 -7.5e-5,-0.02412"
         transform="matrix(1.0237762,0,0,0.88727271,32.730769,10.500001)"
         id="path50"
         style="fill:#eeeeee;fill-opacity:1;stroke:#eeeeee;stroke-width:0;stroke-linecap:round;stroke-linejoin:miter;stroke-miterlimit:4;stroke-opacity:1;stroke-dasharray:none" />
    </g>
    <g
       transform="matrix(0.80357143,0,0,0.80357143,2.9910715,-6.9196426)"
       id="g52">
      <path
         d="m 20.286886,19.159836 a 2.9303279,3.3811476 0 1 1 -7.5e-5,-0.02412"
         transform="matrix(1.0237762,0,0,0.88727271,-3.1025641,10.500001)"
         id="path54"
         style="fill:#eeeeee;fill-opacity:1;stroke:#eeeeee;stroke-width:0;stroke-linecap:round;stroke-linejoin:miter;stroke-miterlimit:4;stroke-opacity:1;stroke-dasharray:none" />
      <path
         d="m 20.286886,19.159836 a 2.9303279,3.3811476 0 1 1 -7.5e-5,-0.02412"
         transform="matrix(1.0237762,0,0,0.88727271,4.0641022,10.500001)"
         id="path56"
         style="fill:#eeeeee;fill-opacity:1;stroke:#eeeeee;stroke-width:0;stroke-linecap:round;stroke-linejoin:miter;stroke-miterlimit:4;stroke-opacity:1;stroke-dasharray:none" />
      <path
         d="m 20.286886,19.159836 a 2.9303279,3.3811476 0 1 1 -7.5e-5,-0.02412"
         transform="matrix(1.0237762,0,0,0.88727271,11.230769,10.500001)"
         id="path58"
         style="fill:#eeeeee;fill-opacity:1;stroke:#eeeeee;stroke-width:0;stroke-linecap:round;stroke-linejoin:miter;stroke-miterlimit:4;stroke-opacity:1;stroke-dasharray:none" />
      <path
         d="m 20.286886,19.159836 a 2.9303279,3.3811476 0 1 1 -7.5e-5,-0.02412"
         transform="matrix(1.0237762,0,0,0.88727271,18.397435,10.500001)"
         id="path60"
         style="fill:#eeeeee;fill-opacity:1;stroke:#eeeeee;stroke-width:0;stroke-linecap:round;stroke-linejoin:miter;stroke-miterlimit:4;stroke-opacity:1;stroke-dasharray:none" />
      <path
         d="m 20.286886,19.159836 a 2.9303279,3.3811476 0 1 1 -7.5e-5,-0.02412"
         transform="matrix(1.0237762,0,0,0.88727271,-10.269231,10.500001)"
         id="path62"
         style="fill:#eeeeee;fill-opacity:1;stroke:#eeeeee;stroke-width:0;stroke-linecap:round;stroke-linejoin:miter;stroke-miterlimit:4;stroke-opacity:1;stroke-dasharray:none" />
      <path
         d="m 20.286886,19.159836 a 2.9303279,3.3811476 0 1 1 -7.5e-5,-0.02412"
         transform="matrix(1.0237762,0,0,0.88727271,25.564102,10.500001)"
         id="path64"
         style="fill:#eeeeee;fill-opacity:1;stroke:#eeeeee;stroke-width:0;stroke-linecap:round;stroke-linejoin:miter;stroke-miterlimit:4;stroke-opacity:1;stroke-dasharray:none" />
      <path
         d="m 20.286886,19.159836 a 2.9303279,3.3811476 0 1 1 -7.5e-5,-0.02412"
         transform="matrix(1.0237762,0,0,0.88727271,32.730769,10.500001)"
         id="path66"
         style="fill:#eeeeee;fill-opacity:1;stroke:#eeeeee;stroke-width:0;stroke-linecap:round;stroke-linejoin:miter;stroke-miterlimit:4;stroke-opacity:1;stroke-dasharray:none" />
    </g>
    <g
       transform="matrix(0.80357143,0,0,0.80357143,5.4017858,-0.75892886)"
       id="g68">
      <path
         d="m 20.286886,19.159836 a 2.9303279,3.3811476 0 1 1 -7.5e-5,-0.02412"
         transform="matrix(1.0237762,0,0,0.88727271,-3.1025641,10.500001)"
         id="path70"
         style="fill:#eeeeee;fill-opacity:1;stroke:#eeeeee;stroke-width:0;stroke-linecap:round;stroke-linejoin:miter;stroke-miterlimit:4;stroke-opacity:1;stroke-dasharray:none" />
      <path
         d="m 20.286886,19.159836 a 2.9303279,3.3811476 0 1 1 -7.5e-5,-0.02412"
         transform="matrix(1.0237762,0,0,0.88727271,4.0641022,10.500001)"
         id="path72"
         style="fill:#eeeeee;fill-opacity:1;stroke:#eeeeee;stroke-width:0;stroke-linecap:round;stroke-linejoin:miter;stroke-miterlimit:4;stroke-opacity:1;stroke-dasharray:none" />
      <path
         d="m 20.286886,19.159836 a 2.9303279,3.3811476 0 1 1 -7.5e-5,-0.02412"
         transform="matrix(1.0237762,0,0,0.88727271,11.230769,10.500001)"
         id="path74"
         style="fill:#eeeeee;fill-opacity:1;stroke:#eeeeee;stroke-width:0;stroke-linecap:round;stroke-linejoin:miter;stroke-miterlimit:4;stroke-opacity:1;stroke-dasharray:none" />
      <path
         d="m 20.286886,19.159836 a 2.9303279,3.3811476 0 1 1 -7.5e-5,-0.02412"
         transform="matrix(1.0237762,0,0,0.88727271,18.397435,10.500001)"
         id="path76"
         style="fill:#eeeeee;fill-opacity:1;stroke:#eeeeee;stroke-width:0;stroke-linecap:round;stroke-linejoin:miter;stroke-miterlimit:4;stroke-opacity:1;stroke-dasharray:none" />
      <path
         d="m 20.286886,19.159836 a 2.9303279,3.3811476 0 1 1 -7.5e-5,-0.02412"
         transform="matrix(1.0237762,0,0,0.88727271,-10.269231,10.500001)"
         id="path78"
         style="fill:#eeeeee;fill-opacity:1;stroke:#eeeeee;stroke-width:0;stroke-linecap:round;stroke-linejoin:miter;stroke-miterlimit:4;stroke-opacity:1;stroke-dasharray:none" />
      <path
         d="m 20.286886,19.159836 a 2.9303279,3.3811476 0 1 1 -7.5e-5,-0.02412"
         transform="matrix(1.0237762,0,0,0.88727271,25.564102,10.500001)"
         id="path80"
         style="fill:#eeeeee;fill-opacity:1;stroke:#eeeeee;stroke-width:0;stroke-linecap:round;stroke-linejoin:miter;stroke-miterlimit:4;stroke-opacity:1;stroke-dasharray:none" />
      <path
         d="m 20.286886,19.159836 a 2.9303279,3.3811476 0 1 1 -7.5e-5,-0.02412"
         transform="matrix(1.0237762,0,0,0.88727271,32.730769,10.500001)"
         id="path82"
         style="fill:#eeeeee;fill-opacity:1;stroke:#eeeeee;stroke-width:0;stroke-linecap:round;stroke-linejoin:miter;stroke-miterlimit:4;stroke-opacity:1;stroke-dasharray:none" />
    </g>
    <g
       transform="matrix(0.80357143,0,0,0.80357143,5.4017858,11.5625)"
       id="g84">
      <path
         d="m 20.286886,19.159836 a 2.9303279,3.3811476 0 1 1 -7.5e-5,-0.02412"
         transform="matrix(1.0237762,0,0,0.88727271,-3.1025641,10.500001)"
         id="path86"
         style="fill:#eeeeee;fill-opacity:1;stroke:#eeeeee;stroke-width:0;stroke-linecap:round;stroke-linejoin:miter;stroke-miterlimit:4;stroke-opacity:1;stroke-dasharray:none" />
      <path
         d="m 20.286886,19.159836 a 2.9303279,3.3811476 0 1 1 -7.5e-5,-0.02412"
         transform="matrix(1.0237762,0,0,0.88727271,4.0641022,10.500001)"
         id="path88"
         style="fill:#eeeeee;fill-opacity:1;stroke:#eeeeee;stroke-width:0;stroke-linecap:round;stroke-linejoin:miter;stroke-miterlimit:4;stroke-opacity:1;stroke-dasharray:none" />
      <path
         d="m 20.286886,19.159836 a 2.9303279,3.3811476 0 1 1 -7.5e-5,-0.02412"
         transform="matrix(1.0237762,0,0,0.88727271,11.230769,10.500001)"
         id="path90"
         style="fill:#eeeeee;fill-opacity:1;stroke:#eeeeee;stroke-width:0;stroke-linecap:round;stroke-linejoin:miter;stroke-miterlimit:4;stroke-opacity:1;stroke-dasharray:none" />
      <path
         d="m 20.286886,19.159836 a 2.9303279,3.3811476 0 1 1 -7.5e-5,-0.02412"
         transform="matrix(1.0237762,0,0,0.88727271,18.397435,10.500001)"
         id="path92"
         style="fill:#eeeeee;fill-opacity:1;stroke:#eeeeee;stroke-width:0;stroke-linecap:round;stroke-linejoin:miter;stroke-miterlimit:4;stroke-opacity:1;stroke-dasharray:none" />
      <path
         d="m 20.286886,19.159836 a 2.9303279,3.3811476 0 1 1 -7.5e-5,-0.02412"
         transform="matrix(1.0237762,0,0,0.88727271,-10.269231,10.500001)"
         id="path94"
         style="fill:#eeeeee;fill-opacity:1;stroke:#eeeeee;stroke-width:0;stroke-linecap:round;stroke-linejoin:miter;stroke-miterlimit:4;stroke-opacity:1;stroke-dasharray:none" />
      <path
         d="m 20.286886,19.159836 a 2.9303279,3.3811476 0 1 1 -7.5e-5,-0.02412"
         transform="matrix(1.0237762,0,0,0.88727271,25.564102,10.500001)"
         id="path96"
         style="fill:#eeeeee;fill-opacity:1;stroke:#eeeeee;stroke-width:0;stroke-linecap:round;stroke-linejoin:miter;stroke-miterlimit:4;stroke-opacity:1;stroke-dasharray:none" />
      <path
         d="m 20.286886,19.159836 a 2.9303279,3.3811476 0 1 1 -7.5e-5,-0.02412"
         transform="matrix(1.0237762,0,0,0.88727271,32.730769,10.500001)"
         id="path98"
         style="fill:#eeeeee;fill-opacity:1;stroke:#eeeeee;stroke-width:0;stroke-linecap:round;stroke-linejoin:miter;stroke-miterlimit:4;stroke-opacity:1;stroke-dasharray:none" />
    </g>
    <g
       transform="matrix(0.80357143,0,0,0.80357143,5.4017858,23.883928)"
       id="g100">
      <path
         d="m 20.286886,19.159836 a 2.9303279,3.3811476 0 1 1 -7.5e-5,-0.02412"
         transform="matrix(1.0237762,0,0,0.88727271,-3.1025641,10.500001)"
         id="path102"
         style="fill:#eeeeee;fill-opacity:1;stroke:#eeeeee;stroke-width:0;stroke-linecap:round;stroke-linejoin:miter;stroke-miterlimit:4;stroke-opacity:1;stroke-dasharray:none" />
      <path
         d="m 20.286886,19.159836 a 2.9303279,3.3811476 0 1 1 -7.5e-5,-0.02412"
         transform="matrix(1.0237762,0,0,0.88727271,4.0641022,10.500001)"
         id="path104"
         style="fill:#eeeeee;fill-opacity:1;stroke:#eeeeee;stroke-width:0;stroke-linecap:round;stroke-linejoin:miter;stroke-miterlimit:4;stroke-opacity:1;stroke-dasharray:none" />
      <path
         d="m 20.286886,19.159836 a 2.9303279,3.3811476 0 1 1 -7.5e-5,-0.02412"
         transform="matrix(1.0237762,0,0,0.88727271,11.230769,10.500001)"
         id="path106"
         style="fill:#eeeeee;fill-opacity:1;stroke:#eeeeee;stroke-width:0;stroke-linecap:round;stroke-linejoin:miter;stroke-miterlimit:4;stroke-opacity:1;stroke-dasharray:none" />
      <path
         d="m 20.286886,19.159836 a 2.9303279,3.3811476 0 1 1 -7.5e-5,-0.02412"
         transform="matrix(1.0237762,0,0,0.88727271,18.397435,10.500001)"
         id="path108"
         style="fill:#eeeeee;fill-opacity:1;stroke:#eeeeee;stroke-width:0;stroke-linecap:round;stroke-linejoin:miter;stroke-miterlimit:4;stroke-opacity:1;stroke-dasharray:none" />
      <path
         d="m 20.286886,19.159836 a 2.9303279,3.3811476 0 1 1 -7.5e-5,-0.02412"
         transform="matrix(1.0237762,0,0,0.88727271,-10.269231,10.500001)"
         id="path110"
         style="fill:#eeeeee;fill-opacity:1;stroke:#eeeeee;stroke-width:0;stroke-linecap:round;stroke-linejoin:miter;stroke-miterlimit:4;stroke-opacity:1;stroke-dasharray:none" />
      <path
         d="m 20.286886,19.159836 a 2.9303279,3.3811476 0 1 1 -7.5e-5,-0.02412"
         transform="matrix(1.0237762,0,0,0.88727271,25.564102,10.500001)"
         id="path112"
         style="fill:#eeeeee;fill-opacity:1;stroke:#eeeeee;stroke-width:0;stroke-linecap:round;stroke-linejoin:miter;stroke-miterlimit:4;stroke-opacity:1;stroke-dasharray:none" />
      <path
         d="m 20.286886,19.159836 a 2.9303279,3.3811476 0 1 1 -7.5e-5,-0.02412"
         transform="matrix(1.0237762,0,0,0.88727271,32.730769,10.500001)"
         id="path114"
         style="fill:#eeeeee;fill-opacity:1;stroke:#eeeeee;stroke-width:0;stroke-linecap:round;stroke-linejoin:miter;stroke-miterlimit:4;stroke-opacity:1;stroke-dasharray:none" />
    </g>
    <g
       transform="matrix(0.78744808,0,0,0.78744808,5.9101423,6.3337893)"
       id="g3292">
      <path
         d="m 27.497,48.279 c -0.553,0 -1.099,-0.035 -1.637,-0.1 l 1.388,2.349 1.368,-2.313 c -0.371,0.03 -0.741,0.064 -1.119,0.064 z"
         id="path3294"
         style="fill:#eeeeee;stroke:#000000;stroke-width:3.5" />
      <g
         id="g3296">
        <path
           d="m 40.16,11.726 c -2.164,0 -3.958,1.555 -4.343,3.607 1.859,1.345 3.457,3.115 4.675,5.208 2.285,-0.172 4.094,-2.061 4.094,-4.39 0,-2.444 -1.982,-4.425 -4.426,-4.425 z"
           id="path3298"
           style="fill:#eeeeee;stroke:#000000;stroke-width:3.5" />
        <path
           d="m 40.713,39.887 c -1.224,2.232 -2.86,4.131 -4.797,5.556 0.521,1.864 2.213,3.239 4.244,3.239 2.443,0 4.426,-1.98 4.426,-4.424 0,-2.255 -1.693,-4.096 -3.873,-4.371 z"
           id="path3300"
           style="fill:#eeeeee;stroke:#000000;stroke-width:3.5" />
        <path
           d="m 14.273,39.871 c -2.253,0.206 -4.024,2.079 -4.024,4.387 0,2.443 1.98,4.424 4.424,4.424 2.064,0 3.784,-1.42 4.272,-3.332 -1.883,-1.416 -3.475,-3.289 -4.672,-5.479 z"
           id="path3302"
           style="fill:#eeeeee;stroke:#000000;stroke-width:3.5" />
        <path
           d="m 19.026,15.437 c -0.343,-2.103 -2.154,-3.711 -4.353,-3.711 -2.444,0 -4.424,1.981 -4.424,4.424 0,2.382 1.886,4.31 4.245,4.406 1.186,-2.043 2.732,-3.784 4.532,-5.119 z"
           id="path3304"
           style="fill:#eeeeee;stroke:#000000;stroke-width:3.5" />
      </g>
      <path
         d="m 27.497,12.563 c 1.908,0 3.728,0.411 5.418,1.128 0.741,-1.076 1.178,-2.377 1.178,-3.783 0,-3.687 -2.989,-6.677 -6.677,-6.677 -3.687,0 -6.676,2.99 -6.676,6.677 0,1.428 0.452,2.749 1.216,3.834 1.724,-0.749 3.587,-1.179 5.541,-1.179 z"
         id="path3306"
         style="fill:#eeeeee;stroke:#000000;stroke-width:3.5" />
      <g
         id="g3308">
        <path
           d="m 43.102,30.421 c 0,4.7344 -1.6452,9.2798 -4.5706,12.6275 -2.9254,3.3478 -6.8973,5.2305 -11.0344,5.2305 -4.1371,0 -8.109,-1.8827 -11.0344,-5.2305 -2.9254,-3.3477 -4.5706,-7.8931 -4.5706,-12.6275 0,-9.7966 7.0444,-17.858 15.605,-17.858 8.5606,0 15.605,8.0614 15.605,17.858 z"
           id="path3310"
           style="fill:#eeeeee;stroke:#000000;stroke-width:3.5" />
      </g>
      <g
         id="g3312">
        <path
           d="m 25.875,33.75 -1.542,-4.625 3.164,-2.587 3.615,2.626 -1.487,4.669 z"
           id="path3314"
           style="fill:#000000;stroke:none" />
        <path
           d="m 27.501,41.551 c -3.968,-0.16 -5.543,-2.009 -5.543,-2.009 l 3.57,-4.163 4.465,0.168 3.132,4.12 c 0,0 -2.89,1.994 -5.624,1.884 z"
           id="path3316"
           style="fill:#000000;stroke:none" />
        <path
           d="m 18.453,33.843 c -0.849,-2.968 0.172,-6.884 0.172,-6.884 l 4,2.167 1.493,4.629 -3.582,4.233 c 0,-10e-4 -1.465,-1.99 -2.083,-4.145 z"
           id="path3318"
           style="fill:#000000;stroke:none" />
        <path
           d="m 19.458,25.125 c 0,0 0.5,-1.958 3.039,-3.822 2.237,-1.643 4.465,-1.72 4.465,-1.72 l -0.037,4.981 -3.521,2.75 -3.946,-2.189 z"
           id="path3320"
           style="fill:#000000;stroke:none" />
        <path
           d="M 32.084,27.834 28.625,24.959 29,19.75 c 0,0 1.834,-0.042 3.959,1.667 2.228,1.791 3.362,4.983 3.362,4.983 l -4.237,1.434 z"
           id="path3322"
           style="fill:#000000;stroke:none" />
        <path
           d="m 31.292,34.042 1.313,-4.464 4.187,-1.536 c 0,0 0.677,2.663 -0.042,5.667 -0.54,2.256 -2.084,4.361 -2.084,4.361 l -3.374,-4.028 z"
           id="path3324"
           style="fill:#000000;stroke:none" />
      </g>
    </g>
  </g>
  <path
     d="m 40.004296,28.657143 c -1.10877,0 -2.018763,0.909992 -2.018763,2.018761 l 0,4.629689 -3.283849,-3.283849 c -0.784855,-0.783184 -2.043082,-0.78485 -2.826264,0 -0.783183,0.784854 -0.784823,2.069998 0,2.85318 l 3.310766,3.28385 -4.683521,0 c -1.10877,0 -2.018762,0.909991 -2.018762,2.018762 0,1.108769 0.909992,1.991843 2.018762,1.991843 l 4.656605,0 -3.28385,3.283849 c -0.783181,0.784854 -0.784823,2.069999 0,2.85318 0.784855,0.783182 2.07,0.757938 2.85318,-0.02692 l 3.256933,-3.283849 0,4.683524 c 0,1.10877 0.909993,1.991844 2.018763,1.991844 1.108769,0 1.991843,-0.883074 1.991843,-1.991844 l 0,-4.71044 3.337683,3.310765 c 0.784853,0.783182 2.043082,0.784855 2.826262,0 0.783182,-0.784853 0.784858,-2.043082 0,-2.826262 l -3.310765,-3.28385 4.656607,0 c 1.10877,0 1.991844,-0.883074 1.991844,-1.991843 0,-1.108771 -0.883074,-2.018763 -1.991844,-2.018763 l -4.683523,0 3.310765,-3.337683 c 0.783182,-0.784854 0.784857,-2.016165 0,-2.799347 -0.784854,-0.78318 -2.043082,-0.811775 -2.826263,-0.02691 l -3.310766,3.337682 0,-4.656604 c 0,-1.10877 -0.883074,-2.018763 -1.991843,-2.018763 z"
     id="rect3894"
     style="fill:#ffffff;fill-opacity:1;stroke:#282828;stroke-width:1.72267997;stroke-linecap:round;stroke-linejoin:round;stroke-miterlimit:4;stroke-opacity:1;stroke-dasharray:none" />
</svg>
