<?xml version="1.0" encoding="UTF-8" standalone="no"?>
<!-- Created with Inkscape (http://www.inkscape.org/) -->

<svg
   xmlns:dc="http://purl.org/dc/elements/1.1/"
   xmlns:cc="http://creativecommons.org/ns#"
   xmlns:rdf="http://www.w3.org/1999/02/22-rdf-syntax-ns#"
   xmlns:svg="http://www.w3.org/2000/svg"
   xmlns="http://www.w3.org/2000/svg"
   version="1.1"
   width="55"
   height="55"
   id="svg2986">
  <metadata
     id="metadata2993">
    <rdf:RDF>
      <cc:Work
         rdf:about="">
        <dc:format>image/svg+xml</dc:format>
        <dc:type
           rdf:resource="http://purl.org/dc/dcmitype/StillImage" />
        <dc:title></dc:title>
      </cc:Work>
    </rdf:RDF>
  </metadata>
  <defs
     id="defs2991" />
  <path
     d="m 10.288678,27.171329 33.938535,0"
     id="path3123"
     style="stroke:#000000;stroke-width:7.5;stroke-linecap:square" />
  <path
     d="m 27.257945,44.148366 0,-33.954075"
     id="path3125"
     style="stroke:#808080;stroke-width:7.5;stroke-linecap:square;stroke-opacity:1" />
  <path
     d="m 10.288678,27.218766 33.938535,0"
     id="path3127"
     style="stroke:#808080;stroke-width:7.5;stroke-linecap:square;stroke-opacity:1" />
  <g
     transform="matrix(0.75,0,0,0.75,-93.844149,-349.44702)"
     id="g3129"
     style="stroke:#808080;stroke-opacity:1">
    <path
       d="m 138.90476,502.66172 21.98482,0"
       id="path3131"
       style="stroke:#808080;stroke-width:10;stroke-linecap:square;stroke-opacity:1" />
    <path
       d="m 160.88958,524.66172 0,-22"
       id="path3133"
       style="stroke:#808080;stroke-width:10;stroke-linecap:square;stroke-opacity:1" />
  </g>
  <path
     d="m 10.382945,27.171336 13.852493,0"
     id="path3135"
     style="stroke:#808080;stroke-width:7.5;stroke-linecap:square;stroke-opacity:1" />
  <path
     d="M 6.6329453,27.171329 27.257945,6.546329"
     id="path3137"
     style="fill:none;stroke:#808080;stroke-width:7.5;stroke-linecap:square;stroke-opacity:1" />
  <path
     d="m 27.257945,47.796329 20.625,-20.625"
     id="path3139"
     style="stroke:#808080;stroke-width:7.5;stroke-linecap:square;stroke-opacity:1" />
  <path
     d="m 39.762241,28.328467 c -1.10877,0 -2.018763,0.909992 -2.018763,2.018761 l 0,4.629689 -3.283849,-3.283849 c -0.784855,-0.783184 -2.043082,-0.78485 -2.826264,0 -0.783183,0.784854 -0.784823,2.069998 0,2.85318 l 3.310766,3.28385 -4.683521,0 c -1.10877,0 -2.018762,0.909991 -2.018762,2.018762 0,1.108769 0.909992,1.991843 2.018762,1.991843 l 4.656605,0 -3.28385,3.283849 c -0.783181,0.784854 -0.784823,2.069999 0,2.85318 0.784855,0.783182 2.07,0.757938 2.85318,-0.02692 l 3.256933,-3.283849 0,4.683524 c 0,1.10877 0.909993,1.991844 2.018763,1.991844 1.108769,0 1.991843,-0.883074 1.991843,-1.991844 l 0,-4.71044 3.337683,3.310765 c 0.784853,0.783182 2.043082,0.784855 2.826262,0 0.783182,-0.784853 0.784858,-2.043082 0,-2.826262 l -3.310765,-3.28385 4.656607,0 c 1.10877,0 1.991844,-0.883074 1.991844,-1.991843 0,-1.108771 -0.883074,-2.018763 -1.991844,-2.018763 l -4.683523,0 3.310765,-3.337683 c 0.783182,-0.784854 0.784857,-2.016165 0,-2.799347 -0.784854,-0.78318 -2.043082,-0.811775 -2.826263,-0.02691 l -3.310766,3.337682 0,-4.656604 c 0,-1.10877 -0.883074,-2.018763 -1.991843,-2.018763 z"
     id="rect3894"
     style="fill:#808080;fill-opacity:1;stroke:#282828;stroke-width:1.72267997;stroke-linecap:round;stroke-linejoin:round;stroke-miterlimit:4;stroke-opacity:1;stroke-dasharray:none" />
</svg>
