<?xml version="1.0" encoding="UTF-8" standalone="no"?>
<!-- Created with Inkscape (http://www.inkscape.org/) -->

<svg
   xmlns:dc="http://purl.org/dc/elements/1.1/"
   xmlns:cc="http://creativecommons.org/ns#"
   xmlns:rdf="http://www.w3.org/1999/02/22-rdf-syntax-ns#"
   xmlns:svg="http://www.w3.org/2000/svg"
   xmlns="http://www.w3.org/2000/svg"
   xmlns:xlink="http://www.w3.org/1999/xlink"
   version="1.1"
   width="55.125"
   height="55"
   viewBox="0 0 55.125 55"
   id="svg2"
   xml:space="preserve"><metadata
     id="metadata11"><rdf:RDF><cc:Work
         rdf:about=""><dc:format>image/svg+xml</dc:format><dc:type
           rdf:resource="http://purl.org/dc/dcmitype/StillImage" /><dc:title></dc:title></cc:Work></rdf:RDF></metadata><defs
     id="defs9">
	
	
	
	
	
<linearGradient
   x1="0.94254935"
   y1="-31.669659"
   x2="104.37702"
   y2="20.434471"
   id="linearGradient3172"
   xlink:href="#linearGradient3166"
   gradientUnits="userSpaceOnUse"
   gradientTransform="matrix(0.7083638,0,0,1.0012565,0.1338084,32.632067)" /><linearGradient
   id="linearGradient3166"><stop
     id="stop3168"
     style="stop-color:#ffffff;stop-opacity:1"
     offset="0" /><stop
     id="stop3170"
     style="stop-color:#ffff00;stop-opacity:1"
     offset="1" /></linearGradient><linearGradient
   x1="0"
   y1="22"
   x2="74"
   y2="22"
   id="linearGradient3172-9"
   xlink:href="#linearGradient3166-6"
   gradientUnits="userSpaceOnUse" /><linearGradient
   id="linearGradient3166-6"><stop
     id="stop3168-5"
     style="stop-color:#ffffff;stop-opacity:1"
     offset="0" /><stop
     id="stop3170-6"
     style="stop-color:#ff0000;stop-opacity:1"
     offset="1" /></linearGradient>
	
	
	

  
  

  
   
   
   
   

	

		
		
		
		
		
		
		
		
		
	
	
	
	

  
  

  
   
   
   
   

		
	
	
</defs><path
     d="m 27.564022,52.678344 c -5.524281,0 -9.998541,-4.477177 -10.001458,-9.998542 0.0022,-4.154149 2.533178,-7.720577 6.147003,-9.226338 0.69564,-0.292402 1.496281,0.035 1.785766,0.732828 0.293132,0.69564 -0.03719,1.495552 -0.732098,1.788683 -2.624326,1.097419 -4.466968,3.686014 -4.464781,6.704827 0.0073,4.010501 3.250693,7.25536 7.265568,7.262652 4.009771,-0.0073 7.25536,-3.252151 7.261922,-7.262652 0.0015,-2.440571 -1.219921,-4.58072 -3.066938,-5.897623 l 0.850955,2.124107 c 0.280735,0.702932 -0.06052,1.498469 -0.762724,1.778475 -0.166983,0.06563 -0.337612,0.09771 -0.505323,0.09771 -0.542512,0 -1.056585,-0.325944 -1.270235,-0.860434 L 27.99351,34.72297 c -0.01312,-0.03208 -0.0058,-0.06781 -0.01604,-0.100627 -0.035,-0.109377 -0.04885,-0.219484 -0.05469,-0.336882 -0.0036,-0.07656 -0.0095,-0.149482 -0.0015,-0.226047 0.0051,-0.03719 -0.0073,-0.07219 0,-0.109377 0.01677,-0.08094 0.06344,-0.145107 0.09188,-0.220213 0.01969,-0.05104 0.0175,-0.107189 0.04375,-0.156045 0.01094,-0.01969 0.03136,-0.03063 0.04302,-0.04958 0.06708,-0.110836 0.152399,-0.200525 0.245734,-0.287298 0.04448,-0.04083 0.07729,-0.08969 0.126149,-0.12469 0.14219,-0.102085 0.301152,-0.174274 0.473239,-0.215838 0.0124,-0.0029 0.01969,-0.0124 0.03208,-0.01531 l 0.0058,-7.3e-4 c 0.0029,-7.29e-4 0.0051,-7.29e-4 0.0087,-0.0015 l 5.459385,-1.168149 c 0.737932,-0.159691 1.463468,0.310631 1.620971,1.050022 0.158233,0.737932 -0.313548,1.462738 -1.050022,1.623158 l -1.45253,0.311361 c 2.423801,1.823684 3.991542,4.718536 3.993,7.986 -0.0015,5.519906 -4.478635,9.997083 -9.998542,9.997083 z"
     id="path5"
     style="fill:#ffffff;fill-opacity:1;stroke:none;display:inline" /><g
     transform="matrix(1.038303,0,0,1.038303,48.621641,-19.573104)"
     id="g3348"
     style="fill:none"><path
       d="m -19.754174,46.744351 c 3.555069,0 8.83424,-1.56838 8.83424,-6.181226 0,-5.131219 -4.597011,-5.60538 -6.503378,-6.124857 -2.107038,-0.441556 -3.510542,-1.057744 -3.594847,-1.909356 -0.144269,-1.460061 0.687503,-2.028723 2.342736,-2.028723 0,0 3.937412,2.024856 7.282311,0.40895 0.942794,-0.454819 2.631273,-2.579702 2.631273,-4.04529 0,-1.466142 -5.450749,-3.160522 -7.104794,-3.160522 -1.655233,0 -3.062894,2.125988 -3.062894,2.125988 -3.309277,0 -6.619149,2.932283 -6.619149,5.864566 0,2.93173 3.166197,5.225166 6.950433,5.864565 1.759131,0.259187 3.230316,1.226851 2.896064,3.005231 -0.27132,1.444036 -1.778128,2.932283 -4.963917,2.932283 -2.524407,0 -7.896195,-0.121026 -8.75409,-2.254199 -0.551547,-1.373851 0.09974,-2.876467 0.927358,-2.876467 l -0.01603,-0.08842 c -0.843052,-0.08732 -3.293841,0.08842 -3.293841,3.020151 -5.94e-4,3.759026 5.428782,5.447327 12.048526,5.447327 z"
       id="path2474"
       style="fill:none;stroke:#ffffff;stroke-width:2;stroke-linecap:round;stroke-linejoin:round;stroke-miterlimit:4;stroke-opacity:1;stroke-dasharray:none" /><path
       d="m -11.393706,30.909692 c -1.557272,-0.158607 -3.924943,-1.105272 -4.43315,-2.775335"
       id="path2476"
       style="fill:none;stroke:#ffffff;stroke-width:2;stroke-linecap:round;stroke-miterlimit:4;stroke-opacity:1;stroke-dasharray:none" /><circle
       cx="35.805"
       cy="10.96"
       r="1.676"
       transform="matrix(0.59369893,0,0,0.5526353,-36.672813,19.93767)"
       id="circle2478"
       style="fill:none;stroke-width:3.42034841;stroke-miterlimit:4;stroke-dasharray:none" /></g></svg>