<?xml version="1.0" ?><!DOCTYPE svg  PUBLIC '-//W3C//DTD SVG 1.1//EN'  'http://www.w3.org/Graphics/SVG/1.1/DTD/svg11.dtd' [
	<!ENTITY stroke_color "#000">
	<!ENTITY fill_color "#eee">
]><svg height="55px" viewBox="0 0 55 55" width="55px" xmlns="http://www.w3.org/2000/svg" xmlns:xlink="http://www.w3.org/1999/xlink" stroke-linecap="round" stroke-linejoin="round" stroke-width="3.5" stroke="&stroke_color;" fill="&fill_color;">
  <g
     transform="matrix(0.80357143,0,0,0.80357143,2.9910715,5.4017857)">
    <path
       d="m 20.286886,19.159836 a 2.9303279,3.3811476 0 1 1 -7.5e-5,-0.02412"
       transform="matrix(1.0237762,0,0,0.88727271,-3.1025641,10.500001)"
       style="fill:&fill_color;;fill-opacity:1;stroke:&fill_color;;stroke-width:0;stroke-linecap:round;stroke-linejoin:miter;stroke-miterlimit:4;stroke-opacity:1;stroke-dasharray:none" />
    <path
       d="m 20.286886,19.159836 a 2.9303279,3.3811476 0 1 1 -7.5e-5,-0.02412"
       transform="matrix(1.0237762,0,0,0.88727271,4.0641022,10.500001)"
       style="fill:&fill_color;;fill-opacity:1;stroke:&fill_color;;stroke-width:0;stroke-linecap:round;stroke-linejoin:miter;stroke-miterlimit:4;stroke-opacity:1;stroke-dasharray:none" />
    <path
       d="m 20.286886,19.159836 a 2.9303279,3.3811476 0 1 1 -7.5e-5,-0.02412"
       transform="matrix(1.0237762,0,0,0.88727271,11.230769,10.500001)"
       style="fill:&fill_color;;fill-opacity:1;stroke:&fill_color;;stroke-width:0;stroke-linecap:round;stroke-linejoin:miter;stroke-miterlimit:4;stroke-opacity:1;stroke-dasharray:none" />
    <path
       d="m 20.286886,19.159836 a 2.9303279,3.3811476 0 1 1 -7.5e-5,-0.02412"
       transform="matrix(1.0237762,0,0,0.88727271,18.397435,10.500001)"
       style="fill:&fill_color;;fill-opacity:1;stroke:&fill_color;;stroke-width:0;stroke-linecap:round;stroke-linejoin:miter;stroke-miterlimit:4;stroke-opacity:1;stroke-dasharray:none" />
    <path
       d="m 20.286886,19.159836 a 2.9303279,3.3811476 0 1 1 -7.5e-5,-0.02412"
       transform="matrix(1.0237762,0,0,0.88727271,-10.269231,10.500001)"
       style="fill:&fill_color;;fill-opacity:1;stroke:&fill_color;;stroke-width:0;stroke-linecap:round;stroke-linejoin:miter;stroke-miterlimit:4;stroke-opacity:1;stroke-dasharray:none" />
    <path
       d="m 20.286886,19.159836 a 2.9303279,3.3811476 0 1 1 -7.5e-5,-0.02412"
       transform="matrix(1.0237762,0,0,0.88727271,25.564102,10.500001)"
       style="fill:&fill_color;;fill-opacity:1;stroke:&fill_color;;stroke-width:0;stroke-linecap:round;stroke-linejoin:miter;stroke-miterlimit:4;stroke-opacity:1;stroke-dasharray:none" />
    <path
       d="m 20.286886,19.159836 a 2.9303279,3.3811476 0 1 1 -7.5e-5,-0.02412"
       transform="matrix(1.0237762,0,0,0.88727271,32.730769,10.500001)"
       style="fill:&fill_color;;fill-opacity:1;stroke:&fill_color;;stroke-width:0;stroke-linecap:round;stroke-linejoin:miter;stroke-miterlimit:4;stroke-opacity:1;stroke-dasharray:none" />
  </g>
  <g
     transform="matrix(0.80357143,0,0,0.80357143,2.9910715,17.723214)">
    <path
       d="m 20.286886,19.159836 a 2.9303279,3.3811476 0 1 1 -7.5e-5,-0.02412"
       transform="matrix(1.0237762,0,0,0.88727271,-3.1025641,10.500001)"
       style="fill:&fill_color;;fill-opacity:1;stroke:&fill_color;;stroke-width:0;stroke-linecap:round;stroke-linejoin:miter;stroke-miterlimit:4;stroke-opacity:1;stroke-dasharray:none" />
    <path
       d="m 20.286886,19.159836 a 2.9303279,3.3811476 0 1 1 -7.5e-5,-0.02412"
       transform="matrix(1.0237762,0,0,0.88727271,4.0641022,10.500001)"
       style="fill:&fill_color;;fill-opacity:1;stroke:&fill_color;;stroke-width:0;stroke-linecap:round;stroke-linejoin:miter;stroke-miterlimit:4;stroke-opacity:1;stroke-dasharray:none" />
    <path
       d="m 20.286886,19.159836 a 2.9303279,3.3811476 0 1 1 -7.5e-5,-0.02412"
       transform="matrix(1.0237762,0,0,0.88727271,11.230769,10.500001)"
       style="fill:&fill_color;;fill-opacity:1;stroke:&fill_color;;stroke-width:0;stroke-linecap:round;stroke-linejoin:miter;stroke-miterlimit:4;stroke-opacity:1;stroke-dasharray:none" />
    <path
       d="m 20.286886,19.159836 a 2.9303279,3.3811476 0 1 1 -7.5e-5,-0.02412"
       transform="matrix(1.0237762,0,0,0.88727271,18.397435,10.500001)"
       style="fill:&fill_color;;fill-opacity:1;stroke:&fill_color;;stroke-width:0;stroke-linecap:round;stroke-linejoin:miter;stroke-miterlimit:4;stroke-opacity:1;stroke-dasharray:none" />
    <path
       d="m 20.286886,19.159836 a 2.9303279,3.3811476 0 1 1 -7.5e-5,-0.02412"
       transform="matrix(1.0237762,0,0,0.88727271,-10.269231,10.500001)"
       style="fill:&fill_color;;fill-opacity:1;stroke:&fill_color;;stroke-width:0;stroke-linecap:round;stroke-linejoin:miter;stroke-miterlimit:4;stroke-opacity:1;stroke-dasharray:none" />
    <path
       d="m 20.286886,19.159836 a 2.9303279,3.3811476 0 1 1 -7.5e-5,-0.02412"
       transform="matrix(1.0237762,0,0,0.88727271,25.564102,10.500001)"
       style="fill:&fill_color;;fill-opacity:1;stroke:&fill_color;;stroke-width:0;stroke-linecap:round;stroke-linejoin:miter;stroke-miterlimit:4;stroke-opacity:1;stroke-dasharray:none" />
    <path
       d="m 20.286886,19.159836 a 2.9303279,3.3811476 0 1 1 -7.5e-5,-0.02412"
       transform="matrix(1.0237762,0,0,0.88727271,32.730769,10.500001)"
       style="fill:&fill_color;;fill-opacity:1;stroke:&fill_color;;stroke-width:0;stroke-linecap:round;stroke-linejoin:miter;stroke-miterlimit:4;stroke-opacity:1;stroke-dasharray:none" />
  </g>
  <g
     transform="matrix(0.80357143,0,0,0.80357143,5.4017858,-13.080357)">
    <path
       d="m 20.286886,19.159836 a 2.9303279,3.3811476 0 1 1 -7.5e-5,-0.02412"
       transform="matrix(1.0237762,0,0,0.88727271,-3.1025641,10.500001)"
       style="fill:&fill_color;;fill-opacity:1;stroke:&fill_color;;stroke-width:0;stroke-linecap:round;stroke-linejoin:miter;stroke-miterlimit:4;stroke-opacity:1;stroke-dasharray:none" />
    <path
       d="m 20.286886,19.159836 a 2.9303279,3.3811476 0 1 1 -7.5e-5,-0.02412"
       transform="matrix(1.0237762,0,0,0.88727271,4.0641022,10.500001)"
       style="fill:&fill_color;;fill-opacity:1;stroke:&fill_color;;stroke-width:0;stroke-linecap:round;stroke-linejoin:miter;stroke-miterlimit:4;stroke-opacity:1;stroke-dasharray:none" />
    <path
       d="m 20.286886,19.159836 a 2.9303279,3.3811476 0 1 1 -7.5e-5,-0.02412"
       transform="matrix(1.0237762,0,0,0.88727271,11.230769,10.500001)"
       style="fill:&fill_color;;fill-opacity:1;stroke:&fill_color;;stroke-width:0;stroke-linecap:round;stroke-linejoin:miter;stroke-miterlimit:4;stroke-opacity:1;stroke-dasharray:none" />
    <path
       d="m 20.286886,19.159836 a 2.9303279,3.3811476 0 1 1 -7.5e-5,-0.02412"
       transform="matrix(1.0237762,0,0,0.88727271,18.397435,10.500001)"
       style="fill:&fill_color;;fill-opacity:1;stroke:&fill_color;;stroke-width:0;stroke-linecap:round;stroke-linejoin:miter;stroke-miterlimit:4;stroke-opacity:1;stroke-dasharray:none" />
    <path
       d="m 20.286886,19.159836 a 2.9303279,3.3811476 0 1 1 -7.5e-5,-0.02412"
       transform="matrix(1.0237762,0,0,0.88727271,-10.269231,10.500001)"
       style="fill:&fill_color;;fill-opacity:1;stroke:&fill_color;;stroke-width:0;stroke-linecap:round;stroke-linejoin:miter;stroke-miterlimit:4;stroke-opacity:1;stroke-dasharray:none" />
    <path
       d="m 20.286886,19.159836 a 2.9303279,3.3811476 0 1 1 -7.5e-5,-0.02412"
       transform="matrix(1.0237762,0,0,0.88727271,25.564102,10.500001)"
       style="fill:&fill_color;;fill-opacity:1;stroke:&fill_color;;stroke-width:0;stroke-linecap:round;stroke-linejoin:miter;stroke-miterlimit:4;stroke-opacity:1;stroke-dasharray:none" />
    <path
       d="m 20.286886,19.159836 a 2.9303279,3.3811476 0 1 1 -7.5e-5,-0.02412"
       transform="matrix(1.0237762,0,0,0.88727271,32.730769,10.500001)"
       style="fill:&fill_color;;fill-opacity:1;stroke:&fill_color;;stroke-width:0;stroke-linecap:round;stroke-linejoin:miter;stroke-miterlimit:4;stroke-opacity:1;stroke-dasharray:none" />
  </g>
  <g
     transform="matrix(0.80357143,0,0,0.80357143,2.9910715,-6.9196426)">
    <path
       d="m 20.286886,19.159836 a 2.9303279,3.3811476 0 1 1 -7.5e-5,-0.02412"
       transform="matrix(1.0237762,0,0,0.88727271,-3.1025641,10.500001)"
       style="fill:&fill_color;;fill-opacity:1;stroke:&fill_color;;stroke-width:0;stroke-linecap:round;stroke-linejoin:miter;stroke-miterlimit:4;stroke-opacity:1;stroke-dasharray:none" />
    <path
       d="m 20.286886,19.159836 a 2.9303279,3.3811476 0 1 1 -7.5e-5,-0.02412"
       transform="matrix(1.0237762,0,0,0.88727271,4.0641022,10.500001)"
       style="fill:&fill_color;;fill-opacity:1;stroke:&fill_color;;stroke-width:0;stroke-linecap:round;stroke-linejoin:miter;stroke-miterlimit:4;stroke-opacity:1;stroke-dasharray:none" />
    <path
       d="m 20.286886,19.159836 a 2.9303279,3.3811476 0 1 1 -7.5e-5,-0.02412"
       transform="matrix(1.0237762,0,0,0.88727271,11.230769,10.500001)"
       style="fill:&fill_color;;fill-opacity:1;stroke:&fill_color;;stroke-width:0;stroke-linecap:round;stroke-linejoin:miter;stroke-miterlimit:4;stroke-opacity:1;stroke-dasharray:none" />
    <path
       d="m 20.286886,19.159836 a 2.9303279,3.3811476 0 1 1 -7.5e-5,-0.02412"
       transform="matrix(1.0237762,0,0,0.88727271,18.397435,10.500001)"
       style="fill:&fill_color;;fill-opacity:1;stroke:&fill_color;;stroke-width:0;stroke-linecap:round;stroke-linejoin:miter;stroke-miterlimit:4;stroke-opacity:1;stroke-dasharray:none" />
    <path
       d="m 20.286886,19.159836 a 2.9303279,3.3811476 0 1 1 -7.5e-5,-0.02412"
       transform="matrix(1.0237762,0,0,0.88727271,-10.269231,10.500001)"
       style="fill:&fill_color;;fill-opacity:1;stroke:&fill_color;;stroke-width:0;stroke-linecap:round;stroke-linejoin:miter;stroke-miterlimit:4;stroke-opacity:1;stroke-dasharray:none" />
    <path
       d="m 20.286886,19.159836 a 2.9303279,3.3811476 0 1 1 -7.5e-5,-0.02412"
       transform="matrix(1.0237762,0,0,0.88727271,25.564102,10.500001)"
       style="fill:&fill_color;;fill-opacity:1;stroke:&fill_color;;stroke-width:0;stroke-linecap:round;stroke-linejoin:miter;stroke-miterlimit:4;stroke-opacity:1;stroke-dasharray:none" />
    <path
       d="m 20.286886,19.159836 a 2.9303279,3.3811476 0 1 1 -7.5e-5,-0.02412"
       transform="matrix(1.0237762,0,0,0.88727271,32.730769,10.500001)"
       style="fill:&fill_color;;fill-opacity:1;stroke:&fill_color;;stroke-width:0;stroke-linecap:round;stroke-linejoin:miter;stroke-miterlimit:4;stroke-opacity:1;stroke-dasharray:none" />
  </g>
  <g
     transform="matrix(0.80357143,0,0,0.80357143,5.4017858,-0.75892886)">
    <path
       d="m 20.286886,19.159836 a 2.9303279,3.3811476 0 1 1 -7.5e-5,-0.02412"
       transform="matrix(1.0237762,0,0,0.88727271,-3.1025641,10.500001)"
       style="fill:&fill_color;;fill-opacity:1;stroke:&fill_color;;stroke-width:0;stroke-linecap:round;stroke-linejoin:miter;stroke-miterlimit:4;stroke-opacity:1;stroke-dasharray:none" />
    <path
       d="m 20.286886,19.159836 a 2.9303279,3.3811476 0 1 1 -7.5e-5,-0.02412"
       transform="matrix(1.0237762,0,0,0.88727271,4.0641022,10.500001)"
       style="fill:&fill_color;;fill-opacity:1;stroke:&fill_color;;stroke-width:0;stroke-linecap:round;stroke-linejoin:miter;stroke-miterlimit:4;stroke-opacity:1;stroke-dasharray:none" />
    <path
       d="m 20.286886,19.159836 a 2.9303279,3.3811476 0 1 1 -7.5e-5,-0.02412"
       transform="matrix(1.0237762,0,0,0.88727271,11.230769,10.500001)"
       style="fill:&fill_color;;fill-opacity:1;stroke:&fill_color;;stroke-width:0;stroke-linecap:round;stroke-linejoin:miter;stroke-miterlimit:4;stroke-opacity:1;stroke-dasharray:none" />
    <path
       d="m 20.286886,19.159836 a 2.9303279,3.3811476 0 1 1 -7.5e-5,-0.02412"
       transform="matrix(1.0237762,0,0,0.88727271,18.397435,10.500001)"
       style="fill:&fill_color;;fill-opacity:1;stroke:&fill_color;;stroke-width:0;stroke-linecap:round;stroke-linejoin:miter;stroke-miterlimit:4;stroke-opacity:1;stroke-dasharray:none" />
    <path
       d="m 20.286886,19.159836 a 2.9303279,3.3811476 0 1 1 -7.5e-5,-0.02412"
       transform="matrix(1.0237762,0,0,0.88727271,-10.269231,10.500001)"
       style="fill:&fill_color;;fill-opacity:1;stroke:&fill_color;;stroke-width:0;stroke-linecap:round;stroke-linejoin:miter;stroke-miterlimit:4;stroke-opacity:1;stroke-dasharray:none" />
    <path
       d="m 20.286886,19.159836 a 2.9303279,3.3811476 0 1 1 -7.5e-5,-0.02412"
       transform="matrix(1.0237762,0,0,0.88727271,25.564102,10.500001)"
       style="fill:&fill_color;;fill-opacity:1;stroke:&fill_color;;stroke-width:0;stroke-linecap:round;stroke-linejoin:miter;stroke-miterlimit:4;stroke-opacity:1;stroke-dasharray:none" />
    <path
       d="m 20.286886,19.159836 a 2.9303279,3.3811476 0 1 1 -7.5e-5,-0.02412"
       transform="matrix(1.0237762,0,0,0.88727271,32.730769,10.500001)"
       style="fill:&fill_color;;fill-opacity:1;stroke:&fill_color;;stroke-width:0;stroke-linecap:round;stroke-linejoin:miter;stroke-miterlimit:4;stroke-opacity:1;stroke-dasharray:none" />
  </g>
  <g
     transform="matrix(0.80357143,0,0,0.80357143,5.4017858,11.5625)">
    <path
       d="m 20.286886,19.159836 a 2.9303279,3.3811476 0 1 1 -7.5e-5,-0.02412"
       transform="matrix(1.0237762,0,0,0.88727271,-3.1025641,10.500001)"
       style="fill:&fill_color;;fill-opacity:1;stroke:&fill_color;;stroke-width:0;stroke-linecap:round;stroke-linejoin:miter;stroke-miterlimit:4;stroke-opacity:1;stroke-dasharray:none" />
    <path
       d="m 20.286886,19.159836 a 2.9303279,3.3811476 0 1 1 -7.5e-5,-0.02412"
       transform="matrix(1.0237762,0,0,0.88727271,4.0641022,10.500001)"
       style="fill:&fill_color;;fill-opacity:1;stroke:&fill_color;;stroke-width:0;stroke-linecap:round;stroke-linejoin:miter;stroke-miterlimit:4;stroke-opacity:1;stroke-dasharray:none" />
    <path
       d="m 20.286886,19.159836 a 2.9303279,3.3811476 0 1 1 -7.5e-5,-0.02412"
       transform="matrix(1.0237762,0,0,0.88727271,11.230769,10.500001)"
       style="fill:&fill_color;;fill-opacity:1;stroke:&fill_color;;stroke-width:0;stroke-linecap:round;stroke-linejoin:miter;stroke-miterlimit:4;stroke-opacity:1;stroke-dasharray:none" />
    <path
       d="m 20.286886,19.159836 a 2.9303279,3.3811476 0 1 1 -7.5e-5,-0.02412"
       transform="matrix(1.0237762,0,0,0.88727271,18.397435,10.500001)"
       style="fill:&fill_color;;fill-opacity:1;stroke:&fill_color;;stroke-width:0;stroke-linecap:round;stroke-linejoin:miter;stroke-miterlimit:4;stroke-opacity:1;stroke-dasharray:none" />
    <path
       d="m 20.286886,19.159836 a 2.9303279,3.3811476 0 1 1 -7.5e-5,-0.02412"
       transform="matrix(1.0237762,0,0,0.88727271,-10.269231,10.500001)"
       style="fill:&fill_color;;fill-opacity:1;stroke:&fill_color;;stroke-width:0;stroke-linecap:round;stroke-linejoin:miter;stroke-miterlimit:4;stroke-opacity:1;stroke-dasharray:none" />
    <path
       d="m 20.286886,19.159836 a 2.9303279,3.3811476 0 1 1 -7.5e-5,-0.02412"
       transform="matrix(1.0237762,0,0,0.88727271,25.564102,10.500001)"
       style="fill:&fill_color;;fill-opacity:1;stroke:&fill_color;;stroke-width:0;stroke-linecap:round;stroke-linejoin:miter;stroke-miterlimit:4;stroke-opacity:1;stroke-dasharray:none" />
    <path
       d="m 20.286886,19.159836 a 2.9303279,3.3811476 0 1 1 -7.5e-5,-0.02412"
       transform="matrix(1.0237762,0,0,0.88727271,32.730769,10.500001)"
       style="fill:&fill_color;;fill-opacity:1;stroke:&fill_color;;stroke-width:0;stroke-linecap:round;stroke-linejoin:miter;stroke-miterlimit:4;stroke-opacity:1;stroke-dasharray:none" />
  </g>
  <g
     transform="matrix(0.80357143,0,0,0.80357143,5.4017858,23.883928)">
    <path
       d="m 20.286886,19.159836 a 2.9303279,3.3811476 0 1 1 -7.5e-5,-0.02412"
       transform="matrix(1.0237762,0,0,0.88727271,-3.1025641,10.500001)"
       style="fill:&fill_color;;fill-opacity:1;stroke:&fill_color;;stroke-width:0;stroke-linecap:round;stroke-linejoin:miter;stroke-miterlimit:4;stroke-opacity:1;stroke-dasharray:none" />
    <path
       d="m 20.286886,19.159836 a 2.9303279,3.3811476 0 1 1 -7.5e-5,-0.02412"
       transform="matrix(1.0237762,0,0,0.88727271,4.0641022,10.500001)"
       style="fill:&fill_color;;fill-opacity:1;stroke:&fill_color;;stroke-width:0;stroke-linecap:round;stroke-linejoin:miter;stroke-miterlimit:4;stroke-opacity:1;stroke-dasharray:none" />
    <path
       d="m 20.286886,19.159836 a 2.9303279,3.3811476 0 1 1 -7.5e-5,-0.02412"
       transform="matrix(1.0237762,0,0,0.88727271,11.230769,10.500001)"
       style="fill:&fill_color;;fill-opacity:1;stroke:&fill_color;;stroke-width:0;stroke-linecap:round;stroke-linejoin:miter;stroke-miterlimit:4;stroke-opacity:1;stroke-dasharray:none" />
    <path
       d="m 20.286886,19.159836 a 2.9303279,3.3811476 0 1 1 -7.5e-5,-0.02412"
       transform="matrix(1.0237762,0,0,0.88727271,18.397435,10.500001)"
       style="fill:&fill_color;;fill-opacity:1;stroke:&fill_color;;stroke-width:0;stroke-linecap:round;stroke-linejoin:miter;stroke-miterlimit:4;stroke-opacity:1;stroke-dasharray:none" />
    <path
       d="m 20.286886,19.159836 a 2.9303279,3.3811476 0 1 1 -7.5e-5,-0.02412"
       transform="matrix(1.0237762,0,0,0.88727271,-10.269231,10.500001)"
       style="fill:&fill_color;;fill-opacity:1;stroke:&fill_color;;stroke-width:0;stroke-linecap:round;stroke-linejoin:miter;stroke-miterlimit:4;stroke-opacity:1;stroke-dasharray:none" />
    <path
       d="m 20.286886,19.159836 a 2.9303279,3.3811476 0 1 1 -7.5e-5,-0.02412"
       transform="matrix(1.0237762,0,0,0.88727271,25.564102,10.500001)"
       style="fill:&fill_color;;fill-opacity:1;stroke:&fill_color;;stroke-width:0;stroke-linecap:round;stroke-linejoin:miter;stroke-miterlimit:4;stroke-opacity:1;stroke-dasharray:none" />
    <path
       d="m 20.286886,19.159836 a 2.9303279,3.3811476 0 1 1 -7.5e-5,-0.02412"
       transform="matrix(1.0237762,0,0,0.88727271,32.730769,10.500001)"
       style="fill:&fill_color;;fill-opacity:1;stroke:&fill_color;;stroke-width:0;stroke-linecap:round;stroke-linejoin:miter;stroke-miterlimit:4;stroke-opacity:1;stroke-dasharray:none" />
  </g>
  <g
     transform="matrix(0.13805832,0,0,0.13805832,-5.953597,-3.5773005)">
    <path
       d="m 264.06145,156.35727 c 5.70564,-5.50672 16.03464,-5.12821 23.62098,-2.82042 14.67032,4.46276 26.17367,17.3598 34.90265,29.96692 5.26961,7.6108 7.7569,17.00103 9.5189,26.08885 4.72232,24.35623 8.07186,50.21987 2.46786,74.38847 -2.82622,12.18878 -8.69707,24.37636 -17.6276,33.13989 -5.9269,5.81607 -14.12605,9.38636 -22.21077,11.28166 -12.12857,2.8433 -25.53977,3.54876 -37.37051,-0.35255 -7.03205,-2.31889 -15.13477,-6.20843 -17.98015,-13.04442 -20.56602,-49.40951 -13.83018,-121.48213 24.67864,-158.6484 z"
       style="fill:&stroke_color;;fill-opacity:1;stroke:none" />
    <path
       d="m 290.50284,292.79489 c -3.40743,0.91243 -6.81342,2.6602 -9.16635,5.28828 -8.98588,10.0367 -15.67338,31.23055 -16.21739,37.01796 -0.17727,1.88587 10.36354,24.21681 14.10208,33.49244 1.42902,3.54552 12.70066,1.82584 17.6276,-1.41021 3.55921,-2.33772 5.82503,-7.02671 5.99338,-11.28166 0.42032,-10.6236 -16.01352,-19.16211 -12.69187,-29.26182 1.31612,-4.00176 5.74298,-4.97561 8.10869,-8.46124 3.13598,-4.62054 6.46635,-8.99608 5.28829,-14.45464 -0.91461,-4.23785 -3.2441,-8.85473 -7.05104,-10.92911 -1.75427,-0.95589 -4.06358,-0.51676 -5.99339,0 z"
       id="path3757"
       style="fill:&stroke_color;;fill-opacity:1;stroke:none" />
    <path
       d="m 186.85256,331.92816 c 1.20102,2.10403 3.26609,4.10362 5.64083,4.58318 2.8798,0.58155 5.90781,-1.0148 8.46125,-2.46787 2.09568,-1.19258 4.22341,-2.77235 5.28828,-4.93572 3.28441,-6.67256 -3.5787,-17.42658 2.11531,-22.21078 4.60277,-3.86732 12.88225,4.59659 17.98015,1.41021 3.53452,-2.20921 5.39341,-7.54558 4.58318,-11.63422 -0.85626,-4.32092 -5.08369,-7.865 -9.16635,-9.5189 -6.32108,-2.56069 -13.98246,-1.46509 -20.44802,0.7051 -3.67818,1.2346 -7.40443,3.44545 -9.5189,6.69849 -5.61449,8.6377 -5.75508,20.02017 -5.99339,30.31947 -0.055,2.37601 -0.12053,4.98699 1.05766,7.05104 z"
       id="path3759"
       style="fill:&stroke_color;;fill-opacity:1;stroke:none" />
    <path
       d="m 296.49623,213.82324 c -2.87817,-3.05808 -4.65222,-7.85924 -3.87807,-11.98676 0.7545,-4.02277 3.75278,-8.66741 7.75614,-9.51891 11.97757,-2.5476 22.70955,9.61362 32.78734,16.56995 7.59869,5.2451 21.36891,11.96053 25.73629,20.09546 1.80036,3.35346 4.17231,6.06571 4.23062,9.87145 0.11612,7.57875 14.41656,24.99999 10.92912,31.72968 -3.29165,6.35186 -8.00569,19.41732 -15.15973,19.39036 -6.4033,-0.0241 -11.67637,0.65005 -14.80719,-4.93572 -2.34385,-4.18172 -4.12343,-9.91494 -4.93573,-16.2174 -1.5087,-11.70574 1.09798,-22.38734 1.76276,-28.20415 0.66478,-5.81681 -13.62394,-13.09076 -18.3327,-16.56995 -7.5121,-5.55051 -19.68742,-3.42243 -26.08885,-10.22401 z"
       id="path3761"
       style="fill:&stroke_color;;fill-opacity:1;stroke:none" />
    <path
       d="m 215.46693,208.47731 c -6.91979,0.72228 -13.2754,-4.26538 -20.09547,-5.64083 -3.71502,-0.74923 -7.66652,-0.27291 -11.28166,-1.41021 -6.97012,-2.19276 -12.47184,-7.87353 -19.39036,-10.22401 -7.9026,-2.6848 -23.26843,-4.93573 -24.67864,-4.23062 -1.41021,0.7051 -16.79408,2.17421 -22.91588,-2.46787 -3.0256,-2.29428 -3.28779,-6.89838 -4.23063,-10.57656 -1.20525,-4.70189 -4.5648,-10.49117 -1.76276,-14.45463 3.75271,-5.30818 12.5823,-4.99609 19.03781,-4.23062 5.84548,0.69314 10.92028,4.56217 15.86484,7.75614 5.25784,3.39633 9.20376,8.57968 14.45463,11.98677 9.12624,5.92168 18.56228,12.48627 29.26182,14.45463 12.19058,2.24266 26.7568,-10.47883 37.01796,-3.52552 4.15602,2.81626 6.19581,9.8349 4.23062,14.45463 -2.28392,5.369 -9.70922,7.50298 -15.51228,8.1087 z"
       id="path3763"
       style="fill:&stroke_color;;fill-opacity:1;stroke:none" />
    <path
       d="m 304.60492,352.37618 c 0,0 5.17207,2.88768 6.69849,5.28828 4.14494,6.51874 7.22204,15.08436 5.28828,22.56333 -1.27043,4.91348 -6.27574,8.09303 -10.22401,11.28166 -6.75869,5.45833 -14.14201,10.9102 -22.56332,13.04442 -8.20512,2.07943 -17.55078,2.5031 -25.38375,-0.7051 -4.309,-1.76487 -9.90115,-4.8737 -10.224,-9.51891 -0.50393,-7.25055 9.24771,-11.21652 13.74952,-16.92249 4.30939,-5.46208 7.04885,-12.50036 12.69187,-16.56994 8.4703,-6.10853 29.61437,-10.22401 29.61437,-10.22401"
       id="path3765"
       style="fill:&stroke_color;;fill-opacity:1;stroke:none" />
    <path
       d="m 206.24292,328.05009 c 4.66049,4.70694 7.73023,11.39676 8.46125,17.98015 0.35872,3.23052 -0.48691,6.70587 -2.11532,9.51891 -1.83366,3.1676 -4.86874,5.70102 -8.10869,7.40359 -8.75634,4.60138 -19.02322,7.03352 -28.90927,6.69849 -5.64737,-0.19138 -11.6956,-1.5471 -16.21739,-4.93573 -3.26039,-2.44334 -7.29406,-6.19346 -6.69849,-10.22401 0.82919,-5.61164 8.11501,-8.12217 13.04443,-10.92911 4.00494,-2.28051 9.81195,-1.29815 13.04442,-4.58318 2.86714,-2.91376 0.96468,-8.7667 3.87807,-11.63421 3.33758,-3.28502 8.72606,-4.56724 13.39698,-4.23063 3.77456,0.27201 7.56137,2.24655 10.22401,4.93573 z"
       id="path3767"
       style="fill:&stroke_color;;fill-opacity:1;stroke:none" />
    <path
       d="m 254.18999,177.51039 c 0,0 -12.37342,14.4437 -19.03781,11.28166 -11.38178,-5.4003 0.52407,-26.38405 -5.64083,-37.37051 -2.32676,-4.14652 -6.65433,-7.08458 -10.92911,-9.16635 -5.61563,-2.73475 -12.09578,-4.21704 -18.33271,-3.87807 -7.90398,0.42957 -20.44801,6.69848 -22.56332,7.40359 -2.11532,0.7051 -25.61275,4.31637 -35.96031,-1.76276 -9.19382,-5.40131 -14.67933,-16.72208 -16.92249,-27.14651 -1.67124,-7.7666 0.22066,-16.24554 3.17296,-23.62098 3.93969,-9.842118 10.70941,-18.752445 18.68526,-25.736295 3.71862,-3.256116 8.64631,-4.795589 13.04442,-7.05104 4.06879,-2.086568 11.8567,-12.090622 16.33932,-12.993384 32.54573,-6.554437 18.469,-2.653647 44.12004,2.467864 3.16446,0.631819 9.5654,7.462837 12.51891,8.76276 8.21763,3.616817 16.19136,8.980749 21.50567,16.217392 5.39024,7.340046 8.49065,16.654751 9.16635,25.736293 0.90634,12.18135 -5.94272,23.79567 -7.05104,35.96031 -0.89574,9.83143 0.35255,29.61436 0.35255,29.61436"
       id="path3771"
       style="fill:&stroke_color;;fill-opacity:1;stroke:none" />
    <path
       d="m 238.37171,315.07518 c -6.36374,-3.79408 -11.92428,-6.89216 -16.37,-12.81903 -8.07225,-10.76166 -10.86433,-22.50639 -14.01116,-35.58584 -3.63114,-15.09242 -4.73304,-33.94198 -2.4933,-49.30264 1.99182,-13.66037 4.05278,-26.89109 12.46649,-37.83562 2.35244,-3.06005 5.50342,-3.96746 7.37086,-7.34542 3.06355,-5.54157 -0.38379,-20.58655 5.17923,-17.56212 7.57973,4.12085 -2.423,26.81021 7.83245,30.24668 8.33588,2.79324 10.6264,-6.28396 13.11342,-14.71627 1.61262,-5.46762 -0.99226,-3.0236 -1.10852,-8.72289 -0.0877,-4.29996 -1.18736,-17.87039 3.08936,-18.3254 9.00943,-0.95854 8.46624,14.93553 12.57553,23.01032 2.48584,4.8847 15.55579,11.70214 18.35083,19.56839 6.67314,18.78067 2.92057,39.5544 1.19213,59.41029 -1.3445,15.44534 -3.45671,37.41861 -11.24893,50.82188 -7.20618,12.39524 -10.18657,16.71794 -24.14426,19.99725 -2.73557,0.64272 -10.33153,0.0324 -11.79413,-0.83958 z"
       id="path2987"
       style="fill:&stroke_color;;fill-opacity:1;stroke:none" />
    <path
       d="m 209,66 c -6.05086,-2.570852 -14.64348,3.862488 -17,10 -2.38062,6.200301 0.22612,15.717717 6,19 5.06084,2.876939 13.9469,0.956559 17,-4 4.49461,-7.296778 1.88757,-21.648779 -6,-25 z"
       id="path3777"
       style="fill:#ffffff;fill-opacity:1;stroke:none" />
    <path
       d="m 204,79 c -3.26003,-0.695187 -7.55756,2.696161 -8,6 -0.50446,3.766956 3.20676,8.763841 7,9 2.82296,0.175751 5.60769,-3.198912 6,-6 0.47601,-3.398705 -1.64359,-8.284261 -5,-9 z"
       id="path3779"
       style="fill:#000000;fill-opacity:1;stroke:&stroke_color;;stroke-width:1px;stroke-linecap:butt;stroke-linejoin:miter;stroke-opacity:1" />
    <path
       d="m 174,144 c 0,0 24.27891,-5.0175 33,-13 6.04795,-5.53575 11,-22 11,-22 l 0,0"
       id="path3781"
       style="fill:none;stroke:&stroke_color;;stroke-width:6;stroke-linecap:round;stroke-linejoin:miter;stroke-miterlimit:4;stroke-opacity:1;stroke-dasharray:none" />
  </g>
</svg>
